<svg xmlns="http://www.w3.org/2000/svg" viewBox="0 0 297.63 239.85"><defs><style>.cls-1{fill:#38575b}</style></defs><title>Ресурс 1</title><g id="Слой_2" data-name="Слой 2"><g id="Layer_1" data-name="Layer 1"><path id="_Составной_контур_" data-name="&lt;Составной контур&gt;" class="cls-1" d="M231.83 62.75l-.39.33 5.56 6.57.39-.33-.09-.13a10.27 10.27 0 0 1-1-1.62 1.07 1.07 0 0 1 .43-1.3l5.39-4.56 1.24 1.47c1.8 2.13.37 4-1.25 5.8-2.18 2.36-2.55 4.14-1.18 5.75a3.37 3.37 0 0 0 2.58 1.35 4.49 4.49 0 0 0 2.85-1.24l.43-.36-.44-.51-.43.36c-1.19 1-2.34 1.19-2.94.49-.2-.24-.57-.68.09-1.63.36-.51.76-1 1.19-1.57s1-1.23 1.43-1.9c1.15-1.67.38-3.64-.53-5 1.64 1.22 4.6 2.82 6.91.86a3.69 3.69 0 0 0 1.27-3.58 7.64 7.64 0 0 0-1.78-3.62l-6.07-7.17-.39.33.09.13a9.62 9.62 0 0 1 .93 1.66 1 1 0 0 1-.44 1.29l-11 9.29a1.07 1.07 0 0 1-1.35.21 9.71 9.71 0 0 1-1.41-1.23zm16.93-6.65l1.4 1.65a3.5 3.5 0 0 1 .91 2.55 4.25 4.25 0 0 1-1.7 2.86 3.64 3.64 0 0 1-3.16 1 4.87 4.87 0 0 1-2.61-1.73l-1-1.13zm14.78 48.06a9.09 9.09 0 0 0-6.67 3.38 9.25 9.25 0 0 0-2.06 6.6 9.38 9.38 0 0 0 3.07 6.5 9.11 9.11 0 0 0 6.37 2.31h1a9.6 9.6 0 0 0 6.5-3 9.71 9.71 0 0 0-1-13.61 9.61 9.61 0 0 0-7.21-2.17zm9.83 8.73c.31 4.31-4.18 6.19-8.49 6.5-5.63.41-9.15-1.53-9.41-5.2-.32-4.33 4.16-6.21 8.46-6.52q.74-.05 1.43-.05c4.8.01 7.76 1.93 8.01 5.29zM248 83.16a7.81 7.81 0 0 1-1.53-1.93l-.07-.14-.47.19 2.84 6.93.06.15.47-.19-.05-.15a7.36 7.36 0 0 1-.3-2.73c.17-.69 1.08-1.34 3-2.11l9.58-3.93-9.53 17.3v.07l.26.64 12.61-5.17c2.51-1 3.47-1 3.85-.71a6.21 6.21 0 0 1 1.45 1.94l.07.14.47-.19-2.89-7-.47.19.05.15a5.37 5.37 0 0 1 .41 2.65c-.18.64-1.38 1.47-3.21 2.22l-8.08 3.32 8.4-15.45v-.07L262.78 74l-.47.19.06.15a5.43 5.43 0 0 1 .36 2.66 3.22 3.22 0 0 1-1.64 1.66l-9.59 3.93c-1.88.76-2.9.92-3.5.57zM154.76 39.1a2.66 2.66 0 0 0 2.3-1.32 2.57 2.57 0 0 0 .26-2 2.64 2.64 0 1 0-2.56 3.31zm-51.35 48.51a4.15 4.15 0 0 1 1.11 2.23 4.1 4.1 0 0 1-.37 1.61l-.07.14.45.24 3.27-6.09.08-.15-.45-.24-.08.13c-1.32 2.17-2 2.41-2.33 2.23a6.64 6.64 0 0 1-1.19-1c-.55-.55-1.74-1.82-2.58-2.83l3-5.58 5 .62a1.24 1.24 0 0 1 .62.22c.29.24.06 1.33-.58 2.7l-.07.14.45.24 4.1-7.64-.45-.24-.08.13a3.68 3.68 0 0 1-1 1.19 2.33 2.33 0 0 1-1.64.27l-4.47-.47c-3.56-.4-8.43-.9-13.13-1.46h-.11l-.33.62 1 1.13c3.25 3.92 6.99 8.37 9.85 11.86zm.08-9.43l-2.74 5.1-5.11-6zM99.26 112a8.41 8.41 0 0 1-.11 1.91v.16l.5.1 1.55-8.17a12.12 12.12 0 0 0-.76-7.49 8.25 8.25 0 0 0-6.13-4.61 8.56 8.56 0 0 0-8 2.16 11.69 11.69 0 0 0-3.07 5.94l-1.63 8.36v.16l.5.1v-.15a5.69 5.69 0 0 1 .67-1.7 1.22 1.22 0 0 1 1.39-.46L98.28 111a1.06 1.06 0 0 1 .98 1zm-15.92-7c.09-.59.25-1.55.37-2.11a6.51 6.51 0 0 1 3.4-4.65 9.84 9.84 0 0 1 6.48-.75c5.28 1 7.84 4 7 8.1-.41 2.14-1.37 2.38-2.36 2.31zm135.09-50.81a9.62 9.62 0 0 0 5.14 1.54 9.18 9.18 0 0 0 8.07-4.79 9.62 9.62 0 0 0 1.37-7 9.71 9.71 0 0 0-11.58-7.21 9.52 9.52 0 0 0-5.92 4.58 9.07 9.07 0 0 0-1.2 7.37 9.24 9.24 0 0 0 4.12 5.51zm.14-11.19a12.23 12.23 0 0 1 4.87-4.81 5.42 5.42 0 0 1 2.27-.52 5.11 5.11 0 0 1 5 5.5 12.94 12.94 0 0 1-2.12 6 12.6 12.6 0 0 1-4.64 4.7 4.9 4.9 0 0 1-5.1-.15c-3.67-2.32-2.56-7.04-.28-10.72zM177.7 0A120.06 120.06 0 0 0 57.78 119.93v1.1a61.83 61.83 0 0 0-14.59-1.84H.26v1.23h.16a30.22 30.22 0 0 1 9 1.54c2.62 1 3.9 3.09 3.9 6.44v70.95c0 3.19-1.2 5-3.9 5.92-1.61.62-6.06 1.15-9.25 1.28H0v1.23h41c13.54 0 26-3.73 35-10.52a40.45 40.45 0 0 0 5.83-5.33A119.9 119.9 0 1 0 177.7 0zM65.08 194.32c-4.92 7.69-12.32 11.59-22 11.59-8.07 0-11.84-2.78-12.24-9v-75.7c2.52-.12 6.93-.25 9.66-.25a27 27 0 0 1 17.5 6.11 119.05 119.05 0 0 0 13.29 48.11c-.99 7.76-3.05 14.2-6.21 19.14zm6.68-24.07a116.39 116.39 0 0 1-10.94-40.53 32.54 32.54 0 0 1 2.64 3.19 40.28 40.28 0 0 1 5.06 9.67c.7 3.36 1.55 6.65 2.54 9.89a70.28 70.28 0 0 1 .94 11.47c0 2.19-.11 4.27-.24 6.3zm2.61-41.95a46.84 46.84 0 0 0-5.37-3.16c-.08-1.73-.13-3.47-.13-5.22a109 109 0 1 1 44.69 87.87h34.23v-1.23h-.16c-2.43-.13-8-.79-9.51-1.41-2.67-1.16-3.91-3.12-3.91-6.18V163.2h10.69c5.09 0 8.81 1.25 11.38 3.82 2.34 2.46 4.83 10 5.52 14.13v.14h1.6v-37h-1.6v.14c-.62 4.09-3.29 11-5.51 13.21-1.87 1.72-4.85 3.7-11.39 3.7h-10.71v-40.4h13.66a65.34 65.34 0 0 1 12.11.77c6 1.4 13.93 13.85 15.77 19.79v.12h1.45v-22.43h-74.6v1.23h.16c2.42.13 7.62.65 10 1.67 3.44 1.38 3.9 4 3.9 6.31v70.69c0 3.22-1.24 5.18-3.9 6.18a11.53 11.53 0 0 1-2 .45A109.74 109.74 0 0 1 88.34 182 43.7 43.7 0 0 0 92 164.07c0-15.77-6-27.8-17.63-35.77zM177.7 237.22a117.2 117.2 0 0 1-94.1-47.35 37.65 37.65 0 0 0 3.4-5.18 112.43 112.43 0 0 0 20.12 21.5c-1.64.17-3.27.3-4.4.36h-.16v1.23h6.58a111.45 111.45 0 1 0-43-87.87c0 1.33.05 2.65.1 4a54.27 54.27 0 0 0-5.86-2.14v-1.82a117.3 117.3 0 1 1 117.3 117.3zM104.26 58.28a6.85 6.85 0 0 1 1.56-1.05 1.1 1.1 0 0 1 1.34.3l10.27 10a1 1 0 0 1 .32 1.31 9.05 9.05 0 0 1-1.09 1.56l-.1.12.36.35 10.79-11.05-3.65-4.07-.37.38.05.11a17.63 17.63 0 0 1 1.26 4.61c0 .78-1 1.81-2.14 3l-.26.26c-.9.92-1.48 1.44-2 1.52s-.9-.17-1.7-1l-9.71-9.47a1 1 0 0 1-.34-1.32 9.4 9.4 0 0 1 1.14-1.53l.1-.12-.36-.35-6 6.16.37.36zm94.95-13.09l.13-.49h-.15a10.79 10.79 0 0 1-1.82-.77 1.1 1.1 0 0 1-.4-1.29l1.85-7 2.42.64a3.08 3.08 0 0 1 2 1.34 7 7 0 0 1 .18 2.86v.15l.56.15 2-7.5-.56-.15-.05.14a5.41 5.41 0 0 1-1.51 2.2 3 3 0 0 1-2.36.18L199 35l2-7.71 2.78.73c.39.1 1.74.47 2.46.76 1 .4 1.91 3.21 2 4.42v.12l.51.14 1.14-4.3V29l-14.39-3.82h-.16l-.13.49h.15a8.43 8.43 0 0 1 1.87.89 1.12 1.12 0 0 1 .38 1.36l-3.67 13.88a1.06 1.06 0 0 1-1 .92 12 12 0 0 1-2-.28h-.15l-.13.49 8.42 2.23z"/></g></g></svg>