<svg xmlns="http://www.w3.org/2000/svg" viewBox="0 0 65.02 32.19"><defs><style>.cls-1{fill:#3a595d}</style></defs><title>Ресурс 1</title><g id="Слой_2" data-name="Слой 2"><path class="cls-1" d="M0 31.65a7.59 7.59 0 0 0 2.19-.38 4 4 0 0 0 1.49-1 4 4 0 0 0 1-1.92A17.18 17.18 0 0 0 5 24.78V7.4a16.26 16.26 0 0 0-.32-3.8 3.8 3.8 0 0 0-1.24-2A5.66 5.66 0 0 0 0 .54V0h13q4.32 0 5.49.09a16.48 16.48 0 0 1 8.44 2.83A15.82 15.82 0 0 1 32 9a18.6 18.6 0 0 1 1.84 8.24 17.86 17.86 0 0 1-1 6.14 13.22 13.22 0 0 1-2.91 4.8 11.92 11.92 0 0 1-6.53 3.42 32.63 32.63 0 0 1-6 .54H0zM10.12.73v23.44a17.86 17.86 0 0 0 .26 3.51 4.69 4.69 0 0 0 1 2.05q1.51 1.84 4.91 1.84a11.75 11.75 0 0 0 5-1 9.87 9.87 0 0 0 3.69-3.1 15 15 0 0 0 2.44-4.75 19 19 0 0 0 .84-5.69 19.87 19.87 0 0 0-1-6.37 16.25 16.25 0 0 0-2.9-5.28A12.38 12.38 0 0 0 18 1.27a19.56 19.56 0 0 0-5-.54zm39.69 14.65v9.41a17.56 17.56 0 0 0 .26 3.55 4.05 4.05 0 0 0 1 1.92 3.84 3.84 0 0 0 1.5 1 7.6 7.6 0 0 0 2.21.39v.54H39.7v-.54a6.28 6.28 0 0 0 2.15-.37 3.91 3.91 0 0 0 1.58-1 4.34 4.34 0 0 0 .94-2 17 17 0 0 0 .28-3.51V7.4a31.15 31.15 0 0 0-.17-3.14 3.86 3.86 0 0 0-2-3.09A6.55 6.55 0 0 0 39.7.54V0h24.64L65 7.66l-.54.12a16.63 16.63 0 0 0-1.06-2.69 7.89 7.89 0 0 0-3.11-3.18A8.11 8.11 0 0 0 57.62 1a25.83 25.83 0 0 0-4.15-.27h-3.66v13.91h.94q4.17 0 6.06-1.86a5.25 5.25 0 0 0 1.25-1.9A10.39 10.39 0 0 0 58.63 8h.54L59 22.33h-.57a11.85 11.85 0 0 0-.88-3.71 5 5 0 0 0-1.9-2.11 6.86 6.86 0 0 0-2.32-.86 19 19 0 0 0-3.52-.27z" id="Слой_1-2" data-name="Слой 1"/></g></svg>