<svg xmlns="http://www.w3.org/2000/svg" width="512" height="512" viewBox="0 0 482.649 482.649"><path d="M450.252 52.49h16.436v-4.728H450a24.576 24.576 0 0 0-.612-2.695l32.381-13.436-2.144-5.133-32.361 13.437a22.772 22.772 0 0 0-2.021-2.967l18.559-18.541-3.356-3.349-18.505 18.5c-1.003-.829-2.035-1.595-3.159-2.247l8.438-20.396-5.143-2.134-8.417 20.351a22.47 22.47 0 0 0-3.74-.717V13.379h-4.735v15.007c-1.368.123-2.73.331-4.099.711L409.004 0l-5.146 2.134 12.071 29.098c-1.172.662-2.266 1.447-3.293 2.276l-16.309-16.307-3.354 3.352 16.273 16.271c-.427.539-.864 1.064-1.253 1.641l-20.091-8.297-2.114 5.144 19.787 8.175a23.614 23.614 0 0 0-1.027 4.293l-15.006-.011v4.728h14.807c.088 1.642.298 3.284.755 4.933l-30.796 12.78 2.123 5.133 30.808-12.78c.284.509.635.958.942 1.439L236.284 235.881c-.33-.033-.64-.076-.974-.076-41.88.796-45.879 4.791-48.268 7.173L6.415 423.608c-7.38 7.387-7.38 19.382 0 26.758l26.76 26.759c7.379 7.372 19.376 7.359 26.755 0l180.623-180.631c2.656-2.647 6.666-6.653 4.377-51.71a9.373 9.373 0 0 0-.818-3.366L414.94 70.597c.415.257.816.553 1.241.788l-8.764 21.226 5.142 2.124 8.777-21.27c1.261.336 2.55.525 3.842.646V90.5h4.74V74.041c1.171-.14 2.34-.347 3.511-.673l14.129 34.063 5.146-2.124-14.13-34.074a22.808 22.808 0 0 0 3.055-2.063l19.933 19.938 3.329-3.327-19.948-19.961c1.22-1.472 2.298-3.053 3.115-4.777l21.543 8.908 2.121-5.132-21.833-9.04c.219-1.076.312-2.168.363-3.289z" fill="#FFF"/></svg>