<svg xmlns="http://www.w3.org/2000/svg" viewBox="0 0 512.001 512.001" width="512" height="512"><path d="M159.32 84.105c-7.028-33.351-36.675-58.465-72.085-58.465S22.177 50.754 15.149 84.104H0v30.417h15.148c7.028 33.35 36.675 58.465 72.086 58.465 35.41 0 65.057-25.114 72.085-58.463h15.148V84.105H159.32zm225.697-16.542c-7.493 0-13.589 6.096-13.589 13.589s6.096 13.589 13.589 13.589 13.589-6.095 13.589-13.589c0-7.493-6.096-13.589-13.589-13.589zm0 108.833c-29.97 0-54.352 24.383-54.352 54.352-.001 29.97 24.382 54.353 54.352 54.353 29.971 0 54.353-24.383 54.353-54.353s-24.382-54.352-54.353-54.352z" fill="#FFF"/><path d="M456.959 401.91H233.993c-13.579 0-24.626-11.047-24.626-24.626v-56.101c0-13.579 11.047-24.626 24.626-24.626h24.04v56.101H512V.007H258.033v266.132h-24.04c-30.351 0-55.043 24.692-55.043 55.043v56.101c0 30.352 24.692 55.043 55.043 55.043h222.965c13.579 0 24.625 11.047 24.625 24.626s-11.047 24.625-24.625 24.625h-329.89c-13.579 0-24.626-11.047-24.626-24.625v-54.969h23.321l15.325-213.627C125.367 197.9 106.93 203.4 87.234 203.4s-38.133-5.5-53.854-15.044l15.325 213.627h23.322v54.969c0 30.351 24.692 55.042 55.043 55.042h329.89c30.351 0 55.042-24.692 55.042-55.042-.001-30.349-24.693-55.042-55.043-55.042zM385.016 37.147c24.264 0 44.006 19.741 44.006 44.006 0 24.264-19.741 44.006-44.006 44.006s-44.006-19.74-44.006-44.006 19.742-44.006 44.006-44.006zm.001 108.832c46.743 0 84.77 38.028 84.77 84.769 0 46.743-38.028 84.77-84.77 84.77s-84.769-38.028-84.769-84.77c-.001-46.741 38.027-84.769 84.769-84.769z" fill="#FFF"/></svg>