<svg xmlns="http://www.w3.org/2000/svg" width="512" height="512" viewBox="0 0 29.625 29.625"><g fill="#3e4f64"><path d="M20.134 10.879a4.674 4.674 0 0 0-2.948 1.063c-.343-.269-.599-.575-.716-.948 2.139-.82 3.664-2.877 3.664-5.303A5.691 5.691 0 0 0 14.441 0 5.691 5.691 0 0 0 8.75 5.691c0 2.399 1.491 4.442 3.593 5.28-1.027 1.86-7.573 2.177-7.573 6.421 0 2.404.882 5.094 2.334 7.33-.214 1.188-.031 2.305.612 3.205.782 1.096 2.126 1.697 3.782 1.697.585 0 1.199-.084 1.824-.229.368.064.739.107 1.118.107 5.087 0 9.247-6.139 9.633-11.336a4.656 4.656 0 0 0 .781-2.568 4.725 4.725 0 0 0-4.72-4.719zm.074 8.219c1.238 1.855-.252 5.127-3.383 7.363-3.165 2.26-6.798 2.6-8.115.758-1.316-1.842.183-5.168 3.349-7.43 1.835-1.312 3.814-1.955 5.422-1.924a3.469 3.469 0 0 1-.85-2.264 3.501 3.501 0 1 1 7.004 0 3.497 3.497 0 0 1-3.427 3.497z"/><path d="M15.415 21.4s-.372-2.051-1.538-1.459c-1.166.596-.371 2.961 1.22 4.445 2.757-1.326 3.871-2.916 2.857-3.805s-2.539.819-2.539.819z"/></g></svg>