<svg xmlns="http://www.w3.org/2000/svg" width="512" height="512" viewBox="0 0 45.001 45.001"><g fill="#FFF"><path d="M6.42 30.262C1.3 21.393 4.351 10.01 13.22 4.889c8.867-5.12 20.248-2.071 25.368 6.798 3.629 6.286 3.138 13.82-.602 19.507l2.002 1.321c4.228-6.416 4.78-14.917.676-22.03C34.873.457 22.048-2.977 12.021 2.813 1.993 8.604-1.446 21.425 4.346 31.458 8.45 38.569 16.089 42.34 23.758 41.886l-.143-2.395c-6.791.399-13.567-2.944-17.195-9.229zm27.168 9.908a18.397 18.397 0 0 1-8.175 2.432l.145 2.399a20.821 20.821 0 0 0 16.23-9.37l-2.002-1.322a18.483 18.483 0 0 1-6.198 5.861z"/><path d="M38.785 33.649l-14.483-9.563 1.039 17.322a17.242 17.242 0 0 0 7.648-2.276 17.259 17.259 0 0 0 5.796-5.483zm-8.527 4.998a1.187 1.187 0 0 1-.567.742 1.22 1.22 0 0 1-1.791-1.372 1.225 1.225 0 0 1 1.175-.906 1.216 1.216 0 0 1 1.183 1.536zm1.983-4.281a1.926 1.926 0 0 0-.255.149 2.052 2.052 0 0 0-.22.202c-.134.134-.259.26-.432.26-.153 0-.295-.098-.458-.314-.188-.256-.511-.821-.779-1.382-.479.254-.934.392-1.291.392-.365 0-.549-.143-.638-.264-.178-.238-.244-.74-.166-1.272.107-.723.454-1.349.951-1.72.489-.36 1.059-.438 1.446-.438.698 0 1.404.246 1.642.566.288.394.015 1.104-.686 1.807.438.404.896.884 1.092 1.147.153.21.207.369.174.51-.041.179-.207.266-.38.357z"/><path d="M37.55 12.286C32.76 3.989 22.113 1.139 13.819 5.928 5.522 10.718 2.668 21.363 7.458 29.66c3.395 5.881 9.729 9.008 16.083 8.634l-1.037-17.322 14.481 9.563c3.503-5.318 3.961-12.368.565-18.249zm-24.736-2.127a1.226 1.226 0 0 1 1.792 1.377 1.216 1.216 0 0 1-1.179.905 1.223 1.223 0 0 1-.613-2.282zm1.375 18.709a2.996 2.996 0 0 1-4.085-1.096 2.994 2.994 0 0 1 1.09-4.088 2.966 2.966 0 0 1 1.489-.398c1.068 0 2.062.573 2.596 1.496a3.004 3.004 0 0 1-1.09 4.086zm3.517-8.679a2.638 2.638 0 0 0-.396.19c-.19.105-.353.196-.525.196-.324 0-.482-.32-.585-.601-.164-.453-.383-1.407-.522-2.271a5.705 5.705 0 0 1-1.146.127c-.841 0-1.393-.244-1.552-.688-.153-.42-.009-1.193.361-1.921.259-.511.851-1.42 1.9-1.802a2.99 2.99 0 0 1 1.04-.178c1.457 0 2.855.94 3.084 1.576.232.633-.451 1.492-1.707 2.165.496.826.913 1.674 1.061 2.073.118.328.132.555.04.72-.119.206-.366.256-.628.307a2.363 2.363 0 0 0-.425.107zM20.21 32.52a1.259 1.259 0 0 1-.61.165 1.22 1.22 0 0 1-.613-2.279 1.217 1.217 0 0 1 1.67.444 1.226 1.226 0 0 1-.447 1.67zm6.822-22.019a2.177 2.177 0 0 1-2.971-.795 2.18 2.18 0 0 1 .796-2.972 2.196 2.196 0 0 1 1.087-.291 2.18 2.18 0 0 1 1.883 1.088 2.173 2.173 0 0 1-.795 2.97zm5.159 13.853a1.222 1.222 0 0 1-1.671-.444 1.226 1.226 0 0 1 .446-1.671 1.226 1.226 0 0 1 1.668.448 1.216 1.216 0 0 1-.443 1.667zm4.081-6.168c-.091.109-.188.221-.267.348-.08.13-.134.268-.188.399-.116.282-.237.577-.568.577-.149 0-.327-.064-.553-.201-.359-.219-1.107-.791-1.828-1.446-.895 1.091-1.882 1.599-2.456 1.252-.354-.216-.704-.833-.885-1.573-.246-1.004-.13-2.007.318-2.749.696-1.146 2.167-1.669 3.234-1.669.367 0 .667.062.86.179.576.351.579 1.448.02 2.757.913.337 1.768.741 2.125.957.298.182.451.35.48.537.043.236-.119.426-.292.632z"/></g></svg>