<svg xmlns="http://www.w3.org/2000/svg" viewBox="0 0 397.882 397.882" width="512" height="512"><g fill="#3a595d"><path d="M73.648 142.016h30.691v83.947l-27.984 48.47a243.376 243.376 0 0 0 62.445 25.039l16.525-28.622h108.818l7.254 25.282c21.501-6.523 42.019-16.001 61.167-28.299l-2.948-10.274V133.755c0-9.596-5.848-17.86-14.897-21.052-9.052-3.192-18.789-.426-24.81 7.046l-28.305 35.131-71.817-.06-2.947-23.431V92.677c0-8.189-1.856-16.078-5.327-23.178l13.886-25.167-33.132 3.767a53.177 53.177 0 0 0-3.795-2.198l-4.559-40.1-25.967 34.496a53.513 53.513 0 0 0-6.566 1.191L63.12 55.962a43.598 43.598 0 0 0-33.143 42.383c0 24.08 19.59 43.671 43.671 43.671zm178.215 32.856l-13.739 35.947h-41.295l-4.527-35.996 59.561.049zm-126.691-70.903c-7.516 0-13.609-6.093-13.609-13.609.001 7.516 6.094 13.609 13.609 13.609z"/><path d="M390.962 279.366c-5.85-7.615-14.275-12.051-23.092-13.073-3.088-.358-6.21.478-8.68 2.367-29.182 22.315-61.917 37.984-96.818 46.52-20.331 5.796-41.576 8.767-63.364 8.767-21.787 0-43.033-2.972-63.364-8.768-34.916-8.539-67.662-24.216-96.853-46.545-2.388-1.827-5.395-2.714-8.384-2.391l-.052.006c-10.463 1.149-19.683 6.932-25.348 16.077a33.497 33.497 0 0 0-5.004 17.172c-.135 10.764 4.542 20.6 12.757 27.189 25.863 20.743 54.741 36.905 85.833 48.036 32.173 11.518 65.958 17.358 100.413 17.358s68.24-5.84 100.413-17.358c30.887-11.058 59.589-27.079 85.32-47.625 14.573-11.634 17.584-32.945 6.223-47.732z"/></g></svg>