<svg xmlns="http://www.w3.org/2000/svg" viewBox="0 0 511.999 511.999"><path d="M452.385 303.234c-8.626-9.975-23.69-11.241-33.867-2.768l-70.465 58.669a75.68 75.68 0 0 1-48.422 17.519h-83.315c-12.531 0-22.69-10.158-22.69-22.69 0-12.531 10.158-22.69 22.69-22.69h79.978c12.531 0 22.69-10.158 22.69-22.69 0-12.531-10.158-22.69-22.69-22.69H163.513a71.114 71.114 0 0 0-61.668 35.7l-10.166 17.704a148.93 148.93 0 0 1-25.866 33.131l-41.587 40.028 59.909 99.542 40.149-37.542a54.941 54.941 0 0 1 37.525-14.811h105.917a104.91 104.91 0 0 0 67.989-25.013l113.362-96.471c10.449-8.702 12.203-24.642 3.308-34.928zm-1.396-85.994c-7.549-84.89-70.772-154.006-152.815-170.476.571-2.634.878-5.366.878-8.168C299.052 17.314 281.739 0 260.458 0c-21.281 0-38.594 17.314-38.594 38.595 0 2.803.307 5.534.878 8.168C140.7 63.234 77.477 132.351 69.928 217.24H33.143v34.168h454.631V217.24h-36.785z"/></svg>