<svg xmlns="http://www.w3.org/2000/svg" viewBox="0 0 269.941 269.941" width="512" height="512"><g fill="#3a595d"><path d="M70.256 70.354v187.888c-.022 8.949 4.253 11.732 11.754 11.699h126.246c7.977-.045 11.588-5.093 11.445-11.876V70.354H70.256zm61.024 33.571l15.201 26.899-26.899 15.201-15.201-26.889 26.899-15.211zm14.793 86.532l-30.889-.773.784-30.888 30.888.773-.783 30.888zm35.494-22.049l-25.63-17.256 17.256-25.629 25.629 17.255-17.255 25.63z"/><path d="M188.073 75.866l7.291-10.019 29.507-41.24 44.1-.01V9.772l-55.898.055-26.04 35.627-.01-.012-4.628 6.353-2.608 3.568h.012l-14.926 20.503zM57.887.243C44.354 1.481 32.058 7.026 22.381 15.477l35.506 35.505V.243zm6.826 50.749l37.647-37.647C91.965 5.192 78.908.232 64.713 0v50.992zM17.487 20.249C8.672 29.827 2.806 42.155 1.337 55.808h51.711L17.487 20.249zM.971 62.637v.021c0 14.604 4.994 28.061 13.366 38.709l38.732-38.731-52.098.001zm17.886 43.867c10.119 10.341 23.784 17.178 39.029 18.56V67.486l-39.029 39.018zm107.079-50.696c-1.602-14.813-8.352-28.059-18.437-37.935L69.552 55.808h56.384z"/></g></svg>