<svg xmlns="http://www.w3.org/2000/svg" width="512" height="512" viewBox="0 0 45.001 45.001"><g fill="#3a595d"><path d="M41.064 29.147c-.817-.878-2.496-2.431-4.548-2.978-1.217-.324-1.842-.771-2.031-.988.512-.332.787-.989.654-1.575-.133-.574-.623-.939-1.316-.976-.18-.01-.371-.011-.574-.014-1.136-.016-2.547-.035-3.952-1.344-1.136-1.057-1.464-2.257-1.761-3.317-.141-.518-.273-1.006-.487-1.433-.487-.979-1.269-1.33-2.166-1.735-.405-.184-.864-.39-1.349-.681-.425-.254-.663-.544-.708-.865-.083-.563.412-1.158.565-1.327.728-.803-.12-1.869-.801-2.727-.17-.214-.334-.419-.462-.607.339-.35 2.084-.902 3.509-.902.23 0 .435.018.584.051.441.097.816-.041 1.042-.365.63-.917-.229-3.365-.508-4.093-.339-.891-1.509-.911-2.64-.931-.347-.007-.699-.011-1.028-.043-.449-.043-.558-.313-.657-1.1-.043-.344-.08-.641-.244-.87C21.983.039 21.583 0 21.218 0 20 0 17.471.557 16.438.826c-.822.215-1.491.862-2.201 1.548-.687.663-1.396 1.349-2.318 1.752-.99.433-2.679.759-4.17 1.048-1.67.324-2.717.538-3.19.842-2.128 1.368-.801 5.451-.168 6.774.338.708.826 1.147 1.217 1.5.511.461.581.572.498.794-.135.361-.019.613.063.729.166.239.456.36.863.36.893 0 2.555-.631 3.128-1.62.58-1.002 1.301-1.011 2.935-.301 1.595.692 1.942 1.851 2.467 3.606l.054.18c.411 1.369 1.636 2.456 2.933 3.608.625.556 1.273 1.13 1.872 1.768 1.779 1.898 5.792 4.248 7.665 5.227 1.39.725 2.6 1.541 4.444 4.882.537.967.613 1.836.232 2.582-.675 1.312-2.632 2.098-4.27 2.293-1.535.184-2.231-.117-2.964-.44-.431-.19-.876-.388-1.48-.483-1.01-.161-1.886.5-2.154 1.541-.233.904.105 1.757.86 2.17.389.214 1.001.589 1.703 1.021 1.81 1.112 4.063 2.497 5.103 2.733.18.041.356.062.524.062.584 0 1.071-.247 1.373-.697.353-.521.396-1.236.121-1.911-.344-.825-.265-1.274.392-2.288.161-.253.257-.253.303-.253.096 0 .231.041.377.085.368.107.928.222 1.436.045.753-.268 1.339-1.197 1.902-2.099.364-.576.739-1.172 1.075-1.44.401-.321.586-.86.517-1.521-.119-1.139-.961-2.471-1.834-2.908-.244-.118-.252-.239-.257-.292-.03-.333.393-1.002 1.25-1.636.825-.608 2.206.702 2.979 1.916.25.392.539.589.858.589.2 0 .578-.085.824-.654.291-.68.343-2.063-.336-2.791z"/><path d="M12.835 24.565c-.199 0-.488.073-.739.426l-.215.309c-.485.706-.835 1.215-1.936 1.354-.845.105-1.382.426-1.592.949-.229.568-.023 1.252.609 2.032.395.486.748 2.366.119 3.854-.515 1.216-.305 1.948-.04 2.349.233.354.718.771 1.705.771.369 0 .961-.121 1.39-.822.104.037.218.056.341.056.583 0 1.381-.443 1.781-1.292.565-1.202.529-5.082.351-6.738-.135-1.257-.735-3.248-1.774-3.248z"/></g></svg>