<svg id="Layer_1" xmlns="http://www.w3.org/2000/svg" viewBox="0 0 512 563.3"><style>.st0{fill:#fff}</style><path class="st0" d="M215.9 248.6l55.6-52.4 163.6 173.6 3.5-70.4-27.1-22.3-3-30-37.1-13.3-14.8-45.9-35.8-38 48.9-46.1-95.1-101L231.9 43c-22.6-25.1-60.3-32.5-91.2-15.7-32.5 17.7-47 56.7-34.7 91l-93.6 50.8 214.1 394.2 245.7-133.4-29.5-54.3-14.3 7.8 21.7 40L233 541.3 34.4 175.6l112.8-61.3-7.8-14.3-19 10.3c-8.2-26.2 3.2-55.4 27.9-68.8 24.3-13.2 54-7.3 71.6 12.5l-99.3 93.6 95.3 101zm177.5 10.3l2.6 26.5 26 21.4-1.2 24.1-137.4-145.8 25.6-24.2 33.3 35.3 16.1 50 35 12.7zm-164.2-191c12 25.3 4.1 56-18.3 72.4l-5.4-5.6 17.9-17.6-11.4-11.7-29.5 29 41.9 43.1 74.9-70.6-36.5-37.5-11.7 11.3 25 25.7-51.1 48.4-2.7-2.8c12.5-9.7 21.6-23.1 26-38.6 5.4-18.9 3.2-38.8-6.2-56.1-.2-.3-.4-.7-.6-1l32.4-30.5 72.8 77.3-40.2 37.9-46.1 43.4-43.8 41.3-72.8-77.3 85.4-80.5z"/><path class="st0" d="M253.1 489.7l-11.6-21.4-14.3 7.7 19.4 35.7 35.7-19.4-7.8-14.2zM70.2 187l19.4 35.7 14.3-7.7-11.6-21.4 21.4-11.7-7.8-14.3zm323.2 198.8l11.6 21.4-21.4 11.6 7.7 14.3 35.7-19.4-19.4-35.7z"/><path transform="rotate(-28.508 207.195 337.054)" class="st0" d="M199.1 328.9h16.3v16.3h-16.3z"/><path transform="rotate(-28.508 250.042 313.781)" class="st0" d="M241.9 305.7h16.3V322h-16.3z"/><path transform="rotate(-28.508 292.89 290.51)" class="st0" d="M284.8 282.4h16.3v16.3h-16.3z"/></svg>