<svg xmlns="http://www.w3.org/2000/svg" viewBox="0 0 46 46" width="512" height="512"><path d="M36.404 39c-.118 1.27-5.995 1.279-13.242 1.279S10.039 40.269 9.921 39H.918c-.315 0-.623-.057-.918-.144v2.038C0 42.057.943 43 2.106 43h41.789A2.106 2.106 0 0 0 46 40.895v-1.918c-.081.006-.155.023-.242.023h-9.354zm7.489-30H2.106A2.106 2.106 0 0 0 0 11.106v3.817c.292.038.608.077.918.077h44.84c.089 0 .161-.011.242-.016v-3.878A2.106 2.106 0 0 0 43.893 9zM4.58 13.365a1.424 1.424 0 1 1 0-2.848 1.424 1.424 0 0 1 0 2.848zm12.638 0a1.425 1.425 0 1 1 .001-2.85 1.425 1.425 0 0 1-.001 2.85zm8.427 0a1.424 1.424 0 1 1 0-2.848 1.424 1.424 0 0 1 0 2.848zm8.423 0a1.425 1.425 0 1 1 .002-2.85 1.425 1.425 0 0 1-.002 2.85zm8.427 0a1.425 1.425 0 0 1-1.425-1.424 1.425 1.425 0 0 1 2.849 0c0 .787-.638 1.424-1.424 1.424zM.918 16A7.33 7.33 0 0 1 0 15.93v21.867c.275.121.586.203.918.203h11.076c2.354-.349 6.47-.354 11.169-.354 4.698 0 8.814.005 11.168.354h11.427c.091 0 .164-.017.242-.027V15.984c-.083.005-.152.016-.242.016H.918zM41 32.895A2.106 2.106 0 0 1 38.895 35H7.106A2.106 2.106 0 0 1 5 32.895v-11.79C5 19.943 5.943 19 7.106 19h31.787c1.164 0 2.107.943 2.107 2.105v11.79zM44.314 3H2.186C1.023 3 0 3.922 0 5.085v2.106C0 8.355 1.023 8 2.186 8h42.128C45.477 8 46 8.355 46 7.191V5.085C46 3.922 45.477 3 44.314 3z" fill="#3a595d"/></svg>