<?xml version="1.0" encoding="utf-8"?>
<!-- Generator: Adobe Illustrator 20.1.0, SVG Export Plug-In . SVG Version: 6.00 Build 0)  -->
<svg version="1.1" id="Capa_1" xmlns="http://www.w3.org/2000/svg" xmlns:xlink="http://www.w3.org/1999/xlink" x="0px" y="0px"
	 viewBox="0 0 377.3 512" style="enable-background:new 0 0 377.3 512;" xml:space="preserve">
<style type="text/css">
	.st0{fill:#3E4F64;}
	.st1{fill:#FFFFFF;}
</style>
<g>
	<g id="label">
		<path class="st0" d="M355.7,393.4c13.5-8.1,21.6-24.3,21.6-43.1V53.9C377.3,24.3,353,0,323.4,0H53.9C24.3,0,0,24.3,0,53.9v296.4
			c0,18.9,8.1,35,21.6,43.1L188.6,512L355.7,393.4z"/>
	</g>
</g>
<g id="XMLID_32_">
	<path id="XMLID_10_" class="st1" d="M214.2,274.4l-41.4-65.7c16.2-3.5,28.6-9.8,37.3-18.9c8.7-9.1,13-20.1,13-33
		c0-19.5-7.2-34.7-21.5-45.5C187.2,100.4,170.7,95,152.1,95H59.8v230h51.6v-39.8c0-0.1,0-0.2,0-0.3v-74.6c4.2,0.4,7.6,2.1,10.2,4.9
		c2.6,2.6,9.1,13.7,19.4,33.2l45,76.6h68.7v-0.7C245.6,319.5,232.1,302.9,214.2,274.4z M158.5,196.2c-7.8,7.7-17.5,11.5-29.1,11.5
		c-7,0-13-0.4-18.1-1.3V99.6h5.9c14.7,0,27.2,5.8,37.5,17.4c10.3,11.6,15.4,26.1,15.4,43.4C170.1,176.6,166.2,188.5,158.5,196.2z"/>
	<path id="XMLID_28_" class="st1" d="M295.5,178.8c7.2,0,13.4-2.5,18.6-7.4c5.1-4.9,7.7-10.9,7.7-17.9c0-6.8-2.6-12.6-7.7-17.6
		c-5.1-4.9-11.3-7.4-18.6-7.4c-7.2,0-13.4,2.5-18.6,7.4c-5.1,4.9-7.7,10.8-7.7,17.6c0,7,2.6,13,7.7,17.9
		C282.1,176.3,288.3,178.8,295.5,178.8z"/>
</g>
</svg>
