<svg xmlns="http://www.w3.org/2000/svg" viewBox="0 0 297 297" width="512" height="512"><g fill="#FFF"><path d="M157.869 241.69v-16.832h-18.738v16.832c-9.058 3.706-15.459 12.611-15.459 22.987 0 13.69 11.138 24.828 24.828 24.828s24.828-11.138 24.828-24.828c0-10.377-6.401-19.282-15.459-22.987zm-9.369 29.077a6.097 6.097 0 0 1-6.09-6.09c0-3.358 2.732-6.09 6.09-6.09s6.09 2.732 6.09 6.09a6.097 6.097 0 0 1-6.09 6.09zm32.477-138.19L134.6 101.659a2.8 2.8 0 0 0-2.884-.14 2.806 2.806 0 0 0-1.486 2.479v61.836c0 1.038.569 1.988 1.485 2.478a2.85 2.85 0 0 0 2.885-.139l46.377-30.918c.784-.522 1.252-1.397 1.252-2.339s-.468-1.816-1.252-2.339z"/><path d="M255.334 70.268h-216.5s-7.916.565-7.916 8.904V202.84a9.37 9.37 0 0 0 9.369 9.369h216.426a9.37 9.37 0 0 0 9.369-9.369V79.498s.418-9.23-10.748-9.23zm-67.081 77.9l-46.377 30.918a15.88 15.88 0 0 1-8.836 2.675c-2.614 0-5.213-.652-7.517-1.886a15.904 15.904 0 0 1-8.409-14.042v-61.836a15.905 15.905 0 0 1 8.411-14.043 15.985 15.985 0 0 1 7.516-1.886c3.157 0 6.213.926 8.837 2.678l46.374 30.916c4.441 2.96 7.093 7.914 7.093 13.252s-2.651 10.294-7.092 13.254zm99.378-90.548A9.37 9.37 0 0 0 297 48.251V16.864a9.37 9.37 0 0 0-9.369-9.369H9.369A9.37 9.37 0 0 0 0 16.864V48.25a9.37 9.37 0 0 0 9.369 9.369h278.262z"/></g></svg>