<svg xmlns="http://www.w3.org/2000/svg" viewBox="0 0 512 512" width="512" height="512"><g fill="#FFF"><path d="M511.105 191.76v-.01c-.146-23.385-19.23-42.417-42.576-42.417H365.907c-22.126-38.195-63.292-64-110.448-64s-88.322 25.805-110.448 64H42.576C19.105 149.333 0 168.469 0 192v170.667c0 23.531 19.105 42.667 42.576 42.667V416c0 5.896 4.761 10.667 10.644 10.667h85.153c5.883 0 10.644-4.771 10.644-10.667v-10.667H361.9V416c0 5.896 4.761 10.667 10.644 10.667h85.153c5.883 0 10.644-4.771 10.644-10.667v-10.667h1.081c11.434 0 22.182-4.479 30.228-12.625 8.066-8.135 12.432-18.927 12.349-30.344l-.894-170.604zM85.174 298.667c-11.746 0-21.309-9.583-21.309-21.354 0-11.781 9.563-21.365 21.309-21.365s21.309 9.583 21.309 21.365c0 11.77-9.563 21.354-21.309 21.354zM255.459 320c-58.688 0-106.441-47.854-106.441-106.667s47.753-106.667 106.441-106.667S361.9 154.52 361.9 213.333 314.147 320 255.459 320z"/><path d="M256 128c-47.063 0-85.333 38.281-85.333 85.333s38.271 85.333 85.333 85.333 85.333-38.281 85.333-85.333S303.063 128 256 128zm0 42.667c-23.521 0-42.667 19.135-42.667 42.667a10.66 10.66 0 0 1-10.667 10.667 10.66 10.66 0 0 1-10.667-10.667c0-35.292 28.708-64 64-64 5.896 0 10.667 4.771 10.667 10.667s-4.77 10.666-10.666 10.666z"/></g></svg>