<svg xmlns="http://www.w3.org/2000/svg" viewBox="0 0 213.03 65.2"><defs><style>.cls-1{fill:#3c4e62}</style></defs><title>Ресурс 1</title><g id="Слой_2" data-name="Слой 2"><g id="Layer_1" data-name="Layer 1"><g id="_Группа_" data-name="&lt;Группа&gt;"><path id="_Составной_контур_" data-name="&lt;Составной контур&gt;" class="cls-1" d="M157.61 23.5a26.28 26.28 0 0 0-7.19-4.18 21 21 0 0 0-7.48-1.46 21.77 21.77 0 0 0-15.3 6.37c-4.47 4.23-6.74 10.08-6.74 17.39a25.14 25.14 0 0 0 2.1 10.51 20.18 20.18 0 0 0 5.52 7.43 26.48 26.48 0 0 0 7.14 4.18 20.66 20.66 0 0 0 7.43 1.46 21.92 21.92 0 0 0 15.35-6.37c4.5-4.23 6.79-10.08 6.79-17.39a25.14 25.14 0 0 0-2.14-10.51 20.19 20.19 0 0 0-5.48-7.43zm-21 .25c1.22-2.91 2.61-4.38 4.13-4.38 2.72 0 5.22 2.69 7.42 8a50.33 50.33 0 0 1 3.36 19.31c0 5.42-.63 9.67-1.88 12.63s-2.61 4.38-4.13 4.38c-2.66 0-5.14-2.69-7.38-8a49.75 49.75 0 0 1-3.41-19.31c-.03-5.38.6-9.66 1.85-12.63z"/><path id="_Контур_" data-name="&lt;Контур&gt;" class="cls-1" d="M65.71 0a7.35 7.35 0 0 0-5.25 2.09 6.7 6.7 0 0 0-2.19 5 6.79 6.79 0 0 0 2.19 5.07 7.63 7.63 0 0 0 10.49 0 6.79 6.79 0 0 0 2.19-5.07 6.7 6.7 0 0 0-2.19-5A7.35 7.35 0 0 0 65.71 0z"/><path id="_Контур_2" data-name="&lt;Контур&gt;" class="cls-1" d="M205.6 14.23a7.34 7.34 0 0 0 5.25-2.09A6.79 6.79 0 0 0 213 7.07a6.69 6.69 0 0 0-2.19-5 7.63 7.63 0 0 0-10.49 0 6.7 6.7 0 0 0-2.19 5 6.79 6.79 0 0 0 2.19 5.07 7.35 7.35 0 0 0 5.28 2.09z"/><path id="_Контур_3" data-name="&lt;Контур&gt;" class="cls-1" d="M109.94 19.22h.15c2.2.75 3.53 2 4 3.64a9.65 9.65 0 0 1-.94 6.18l-6.66 17.43-10.85-27.66-.05-.14H80.54v.51l.09.07c1.34 1 3.32 4.61 5.88 10.73l14.16 34.1.05.13h.47l13.31-34.14c2.39-6.08 4.19-9.72 5.36-10.84l.07-.06v-.49h-10z"/><path id="_Составной_контур_2" data-name="&lt;Составной контур&gt;" class="cls-1" d="M42.78 50l-11.2-17.8a19.47 19.47 0 0 0 10-5.18 12.94 12.94 0 0 0 3.62-9.21c0-5.4-2-9.66-6-12.66A22.21 22.21 0 0 0 25.55.63H0V64.2h14.59V32.75A4 4 0 0 1 17 34c.7.7 2.48 3.75 5.29 9.07l12.36 21 .06.11h19.2v-.53l-.11-.06c-2.42-1.27-6.13-5.86-11.02-13.59zM14.58 2.33H16A13.1 13.1 0 0 1 26.11 7a17.15 17.15 0 0 1 4.19 11.8c0 4.37-1.06 7.62-3.14 9.68a10.75 10.75 0 0 1-7.83 3.1 29.82 29.82 0 0 1-4.74-.33z"/><path id="_Контур_4" data-name="&lt;Контур&gt;" class="cls-1" d="M59.1 18.67h13.22V64.2H59.1z"/><path id="_Контур_5" data-name="&lt;Контур&gt;" class="cls-1" d="M173.64.63h13.22V64.2h-13.22z"/><path id="_Контур_6" data-name="&lt;Контур&gt;" class="cls-1" d="M198.99 18.67h13.22V64.2h-13.22z"/></g></g></g></svg>