<svg xmlns="http://www.w3.org/2000/svg" viewBox="0 0 74.29 65.2"><defs><style>.cls-1{fill:#3c4e62}</style></defs><title>Ресурс 1</title><g id="Слой_2" data-name="Слой 2"><g id="Layer_1" data-name="Layer 1"><g id="_Группа_" data-name="&lt;Группа&gt;"><path id="_Составной_контур_" data-name="&lt;Составной контур&gt;" class="cls-1" d="M43.76 50.85L32 32.23q6.89-1.49 10.57-5.36a13.09 13.09 0 0 0 3.68-9.36q0-8.29-6.1-12.9A22.62 22.62 0 0 0 26.16 0H0v65.2h14.62V32.69a4.42 4.42 0 0 1 2.89 1.4q1.11 1.12 5.49 9.41l12.75 21.7h19.47V65q-3.82-2-11.46-14.15zM28 28.69a11.27 11.27 0 0 1-8.24 3.26 30.23 30.23 0 0 1-5.12-.37V1.3h1.68a13.68 13.68 0 0 1 10.59 4.94 17.85 17.85 0 0 1 4.38 12.29q-.01 6.9-3.29 10.16z"/><path id="_Контур_" data-name="&lt;Контур&gt;" class="cls-1" d="M66.84 23.75a7.33 7.33 0 0 0 5.26-2.1 6.76 6.76 0 0 0 2.19-5.08 6.67 6.67 0 0 0-2.19-5 7.66 7.66 0 0 0-10.52 0 6.67 6.67 0 0 0-2.19 5 6.76 6.76 0 0 0 2.19 5.08 7.33 7.33 0 0 0 5.26 2.1z"/></g></g></g></svg>