<svg xmlns="http://www.w3.org/2000/svg" viewBox="0 0 454.914 454.914" width="512" height="512"><g fill="#3a595d"><path d="M161.976 311.131c0-3.89-5.33-7.248-13.125-9.019v-23.737c1.386-.777 2.727-1.678 4.052-2.603-2.618-4.514-5.13-9.15-7.425-13.964-1.603-3.35-3.066-6.786-4.514-10.243l-9.148 16.005c-1.218.153-2.389.468-3.651.468-4.206 0-8.672-.938-13.294-2.618l19.024-33.225c-4.991-15.789-8.257-31.816-9.597-46.766L88.13 248.623c-3.928-3.436-7.809-7.301-11.63-11.421l48.121-84.072c2.866-25.716 11.923-48.937 25.246-67.321 3.235-4.451 6.639-8.696 10.336-12.538-.077-.107-.154-.238-.231-.347-.508-.623-1.031-1.194-1.539-1.801-3.343-4.013-6.84-7.803-10.553-11.207-.139-.115-.246-.262-.385-.377-3.774-3.436-7.748-6.447-11.814-9.204-.662-.446-1.309-.924-1.986-1.355-3.944-2.527-7.95-4.837-12.154-6.547-24.906-10.131-45.702-5.361-48.598-4.574C31.165 49.211 7.617 98.648 16.12 152.182c.802 5.044 1.787 10.112 3.174 15.204.646 2.364 1.433 4.752 2.218 7.139.385 1.202.725 2.388 1.141 3.598.43 1.224.953 2.464 1.416 3.695.895 2.373 1.771 4.745 2.789 7.117.614 1.456 1.309 2.912 1.972 4.368.97 2.14 1.94 4.281 2.987 6.407.771 1.533 1.586 3.05 2.388 4.568 1.063 1.994 2.11 3.981 3.235 5.953a220.157 220.157 0 0 0 9.487 15.15 240.303 240.303 0 0 0 3.728 5.274 201.363 201.363 0 0 0 3.265 4.352c1.342 1.756 2.727 3.457 4.113 5.153 1.14 1.371 2.265 2.733 3.419 4.059a191.826 191.826 0 0 0 4.39 4.828c.816.855 1.57 1.767 2.434 2.55 24.929 22.63 50.293 31.358 56.069 32.196v18.319c-7.81 1.763-13.14 5.122-13.14 9.019 0 3.989 5.592 7.417 13.71 9.15-9.088 27.918-25.216 96.656 20.979 132.947a7.801 7.801 0 0 0 4.868 1.687 7.892 7.892 0 0 0 6.208-3.011c2.68-3.428 2.095-8.388-1.341-11.076-40.188-31.576-21.779-97.903-14.371-119.53 11.784-.894 20.718-5.099 20.718-10.167zM32.617 155.109c-1.895-9.319-2.695-18.516-2.495-27.372l41.682-72.828c1.726-.677 3.466-1.339 5.282-1.833a51.857 51.857 0 0 1 13.602-1.809c.433 0 .849.139 1.279.146l-59.35 103.696zm23.074 54.952c-3.265-5.145-6.27-10.491-9.041-15.944l76.185-133.131a85.284 85.284 0 0 1 12.831 9.334L55.691 210.061zM438.158 66.477C432.152 36.95 414.976 13.104 389.3 3.801c-3.403-1.232-6.872-2.075-10.353-2.741-1-.191-24.051-5.704-53.896 10.443-.745.403-1.462.801-2.201 1.248-3.82 2.325-7.548 4.959-11.168 7.855-9.951 7.956-18.9 18.076-26.478 29.807-2.156 3.327-4.282 6.661-6.192 10.243-.354.67-.708 1.333-1.047 2.017 4.312 3.313 8.472 6.925 12.337 10.983a133.15 133.15 0 0 1 4.114-8.025l2.108-.986c1.896-.885 4.099-.986 6.024-.277a7.94 7.94 0 0 1 4.467 4.074l14.91 31.871 31.87-14.912c3.927-1.847 8.642-.153 10.488 3.798l14.926 31.87 31.87-14.918c1.927-.886 4.099-.978 6.024-.277a7.936 7.936 0 0 1 4.467 4.074l1.076 2.303c-1.247 6.524-2.957 13.101-5.327 19.663-.401 1.109-.911 2.218-1.341 3.327l-5.361-11.46-31.869 14.918c-3.912 1.857-8.641.155-10.49-3.796l-14.926-31.877-31.869 14.918c-1.232.601-2.573.709-3.912.609a148.568 148.568 0 0 1 5.299 18.276l14.833-6.947c3.897-1.818 8.642-.146 10.49 3.805l14.926 31.87 31.854-14.91a7.92 7.92 0 0 1 6.021-.278 7.923 7.923 0 0 1 4.467 4.074l.663 1.409a189.689 189.689 0 0 1-10.026 15.797l-1.588-3.374-31.854 14.912c-3.913 1.855-8.626.153-10.49-3.798l-14.927-31.877-11.691 5.476c.647 5.776 1.095 11.63 1.095 17.63 0 1.077-.109 2.226-.125 3.319 2.327.494 4.452 1.91 5.546 4.244l14.926 31.87 27.787-13.008c-12.475 12.477-25.847 22.22-38.292 27.448-.122-.224-.339-.369-.446-.609l-11.8-25.215c-1.556 9.851-3.882 19.948-6.9 30.013a233.44 233.44 0 0 1-5.175 15.404c0 .024-.017.038-.017.062-2.326 6.184-4.852 12.268-7.687 18.153-3.173 6.585-6.685 12.854-10.443 18.838.925.254 1.956.455 2.974.655-9.705 34.365-31.577 134.25 29.527 171.949a7.847 7.847 0 0 0 4.143 1.178 7.905 7.905 0 0 0 6.717-3.743c2.278-3.713 1.124-8.573-2.573-10.852-53.249-32.855-29.636-130.035-21.61-157.669 11.552-.97 20.24-5.146 20.24-10.144 0-3.888-5.33-7.246-13.123-9.017V244.39c.863-.057 1.729-.139 2.586-.218 1.727-.17 3.467-.371 5.207-.702a63.45 63.45 0 0 0 3.697-.823 73.86 73.86 0 0 0 5.253-1.525 87.594 87.594 0 0 0 3.726-1.332 87.214 87.214 0 0 0 5.345-2.303c1.232-.569 2.45-1.131 3.682-1.763 1.85-.954 3.697-2.025 5.546-3.126 1.14-.67 2.28-1.301 3.42-2.025 2.095-1.333 4.157-2.797 6.238-4.283.878-.632 1.756-1.202 2.634-1.864a157.207 157.207 0 0 0 8.673-7.016c.585-.508 1.139-1.071 1.724-1.587.416-.377.833-.778 1.248-1.155 4.082-3.705 8.072-7.61 11.906-11.776.586-.617 1.141-1.248 1.695-1.872 1.078-1.194 2.109-2.426 3.156-3.642a191.08 191.08 0 0 0 4.576-5.477c1.048-1.301 2.064-2.634 3.097-3.959a217.027 217.027 0 0 0 10.443-14.902c.153-.238.308-.486.462-.732.877-1.394 1.756-2.781 2.604-4.189a186.839 186.839 0 0 0 3.526-6.161c.755-1.357 1.524-2.704 2.235-4.068.646-1.24 1.248-2.479 1.862-3.719 2.789-5.629 5.284-11.283 7.317-16.882.339-.933.569-1.872.893-2.811 3.158-9.32 5.314-18.669 6.471-27.873 1.726-13.973 1.202-27.558-1.356-40.128zm-43.282 27.726c-3.912 1.841-8.643.146-10.489-3.796L369.46 58.529l-31.886 14.926c-3.927 1.817-8.642.146-10.49-3.805l-13.692-29.275c3.959-3.965 8.116-7.5 12.461-10.596l12.185 26.046 31.885-14.926c3.897-1.801 8.641-.145 10.49 3.806l14.926 31.869 26.123-12.222a97.453 97.453 0 0 1 2.789 16.096l-29.375 13.755z"/><path d="M237.344 311.037c41.543-12.338 73.506-84.572 73.506-140.425 0-61.252-38.401-110.905-85.767-110.905-11.877 0-23.199 3.135-33.488 8.781-12.184 6.692-22.874 16.973-31.407 29.751-12.97 19.431-20.871 44.686-20.871 72.374 0 18.407 3.527 38.594 9.658 57.856.03.107.061.214.092.315 4.467 13.97 10.352 27.355 17.328 39.262 1.311 2.25 2.62 4.521 4.007 6.647 11.859 18.169 26.446 31.608 42.436 36.344v21.088c-7.795 1.763-13.139 5.122-13.139 9.019 0 4.705 7.748 8.642 18.298 9.896 1.726 25.77 1.941 73.952-11.398 91.158a7.89 7.89 0 0 0 1.4 11.06 7.882 7.882 0 0 0 4.838 1.656 7.876 7.876 0 0 0 6.238-3.059c17.774-22.92 16.313-77.402 14.71-101.014 9.72-1.456 16.682-5.238 16.682-9.697 0-3.89-5.33-7.248-13.123-9.019v-21.088zM215.21 76.535l7.748 1.132-20.903 20.379 4.93 28.789-25.848-13.593-15.941 8.387c10.642-23.945 28.788-40.988 50.014-45.094zm-3.698 172.342l4.929 28.789-25.847-13.593-6.022 3.165c-7.793-11.76-14.541-25.994-19.609-41.097l12.709-1.849 12.923-26.186 12.925 26.186 28.896 4.205-20.904 20.38zm11.446-95.394l28.896-4.205 12.925-26.185 12.922 26.185 15.975 2.327c.646 4.328.985 8.795 1.186 13.316l-9.166 8.941 4.93 28.789-25.846-13.593-25.848 13.593 4.929-28.789-20.903-20.379z"/></g></svg>