<svg xmlns="http://www.w3.org/2000/svg" width="512" height="512" viewBox="0 0 24 24"><g fill="#3a595d"><path d="M14.112 8.652s-.073.646-.689.291c-.844-.486-1.332.324-1.332.324s.668.084 1.42.084.601-.699.601-.699zm-2.201.616s-.489-.811-1.334-.324c-.615.355-.689-.292-.689-.292s-.15.7.602.7 1.421-.084 1.421-.084z"/><path d="M8.177 8.844c.688 2.01 1.982 3.538 3.824 3.538 1.773 0 3.087-1.506 3.797-3.513 1.432-1.445 1.094-2.525.764-3.041C17.34 2.102 14.962 0 11.865 0c-5.55 0-4.581 6.08-4.581 6.08l.018.002c-.253.572-.328 1.534.875 2.762zm2.318-4.514l-.405 1.509c1.981-.604 2.247-.936 2.559-1.163a7.45 7.45 0 0 0 .82-.691c.103.184.231.352.378.504.147.154.365-1.397.365-1.397s.547.942.623 1.247c.053.216.4 1.09.586 1.17-.07 2.885-1.364 5.9-3.42 5.9-1.915 0-3.169-2.615-3.389-5.305.526-.032 1.883-1.774 1.883-1.774zm-.037 10.757s.705-.216 1.098-.708a.319.319 0 0 0 .182.059h.451a.336.336 0 0 0 .228-.096c.386.52 1.126.745 1.126.745.803-.292.842-1.718.459-2.106-.33-.337-1.289.176-1.543.32a.34.34 0 0 0-.27-.142h-.451a.336.336 0 0 0-.246.112c-.313-.173-1.182-.607-1.492-.291-.384.389-.345 1.815.458 2.107z"/><circle cx="12" cy="20.028" r=".487"/><circle cx="12" cy="16.623" r=".486"/><path d="M21.95 16.996c-1.15-3.027-3.779-4.277-3.814-4.294l-2.792-1.028-.37.9.781.287-2.873 9.481c-.292.021-.585.036-.882.036-.282 0-.562-.014-.839-.033l-2.878-9.498.747-.274-.373-.899-2.758 1.014-.035.015c-.035.017-2.663 1.267-3.814 4.295a8.113 8.113 0 0 0-.484 2.077A13.485 13.485 0 0 0 11.992 24h.019c.227 0 .452-.006.676-.018h.014a13.483 13.483 0 0 0 9.734-4.908 8.12 8.12 0 0 0-.485-2.078zm-5.414 1.37l1.621 1.54c-1.277.588-3.305.467-3.305.467l1.684-2.007z"/></g></svg>