<svg xmlns="http://www.w3.org/2000/svg" viewBox="0 0 512 512" width="512" height="512"><path d="M251.661 91.119l27.77 34.712h50.904l-34.711-34.712zm191.488 0h-43.963l-34.711 34.712h50.905zM374.645 70.17l-31.119-31.119-31.119 31.119zm-43.832-39.797l-8.678-8.678h-39.797a8.688 8.688 0 0 0-7.22 3.862l-32.135 48.206h44.44l43.39-43.39zm43.832 60.746h-62.238l31.119 31.119zm68.981-17.356l-32.134-48.206a8.691 8.691 0 0 0-7.22-3.862h-39.797l-8.678 8.678 43.39 43.39h44.439zm-56.511 91.891l17.972-22.467H289.15l17.903 22.38c-18.059 4.556-35.25 12.271-51.052 22.832-27.188-18.172-58.524-27.856-91.119-27.856C73.962 160.542 0 234.505 0 325.424s73.962 164.881 164.881 164.881c32.594 0 63.931-9.685 91.119-27.856 27.188 18.172 58.524 27.856 91.119 27.856 90.919 0 164.881-73.962 164.881-164.881 0-77.104-53.265-141.824-124.885-159.77zm-118.098 159.77c0 17.686-4.513 34.747-13.017 50.089-8.504-15.343-13.017-32.404-13.017-50.089 0-17.686 4.513-34.747 13.017-50.089 8.504 15.342 13.017 32.403 13.017 50.089zM164.881 429.559c-57.422 0-104.136-46.714-104.136-104.136s46.713-104.136 104.136-104.136c16.132 0 32.004 3.844 46.462 11.108-19.005 27.553-29.106 59.479-29.106 93.028 0 33.549 10.101 65.475 29.106 93.028-14.449 7.264-30.329 11.108-46.462 11.108zm182.238 43.39c-30.954 0-60.702-9.667-86.042-27.952a148.497 148.497 0 0 1-30.156-29.019c-20.497-26.225-31.327-57.544-31.327-90.555 0-30.303 9.138-59.184 26.485-84.003.243.174.503.33.746.503 3.185 2.369 6.248 4.877 9.138 7.585.503.477.963 1.007 1.458 1.493a103.92 103.92 0 0 1 6.734 7.22c.356.417.694.859 1.041 1.284-12.826 19.716-19.569 42.366-19.569 65.918 0 25.774 8.079 50.48 23.361 71.437a121.334 121.334 0 0 0 34.365 31.839c19.265 11.915 41.307 18.215 63.766 18.215 66.994 0 121.492-54.498 121.492-121.492S414.113 203.93 347.119 203.93c-19.925 0-39.528 4.955-57.144 14.397-.417-.477-.885-.911-1.302-1.388-1.788-2.048-3.653-4.009-5.545-5.962-1.05-1.085-2.074-2.195-3.15-3.254-2.412-2.36-4.92-4.617-7.472-6.821-.581-.495-1.102-1.05-1.684-1.536 23.083-14.076 49.23-21.469 76.297-21.469 81.347 0 147.525 66.178 147.525 147.525s-66.178 147.527-147.525 147.527zm-46.462-240.553c14.449-7.263 30.329-11.108 46.462-11.108 57.422 0 104.136 46.714 104.136 104.136S404.542 429.56 347.119 429.56c-16.132 0-32.004-3.844-46.462-11.108 19.005-27.553 29.106-59.479 29.106-93.028 0-33.549-10.101-65.476-29.106-93.028z" fill="#3e4f64"/></svg>