<svg xmlns="http://www.w3.org/2000/svg" viewBox="0 0 493.355 493.355" width="512" height="512"><g fill="#3a595d"><path d="M446.638 177.763c-24.986-31.242-38.701-69.96-39.086-109.947 9.056-.039 16.38-7.37 16.38-16.428 0-9.08-7.355-16.444-16.444-16.444V12.903c0-7.13-5.782-12.903-12.912-12.903h-39.954c-7.13 0-12.91 5.773-12.91 12.903v22.041c-9.091 0-16.444 7.364-16.444 16.444 0 9.058 7.323 16.389 16.38 16.428-.387 39.987-14.101 78.705-39.087 109.947-14.342 17.921-22.032 40.042-22.274 62.741 3.532-.392 7.083-.723 10.695-.723 10.921 0 22.146 1.896 33.226 5.581 11.129 3.654 19.848 12.044 23.928 23.028 4.031 10.927 2.94 22.915-3.035 32.905l-10.244 17.142c-6.504 10.912-18.196 17.697-30.803 18.388 1.624 1.838 3.181 3.741 4.609 5.773 19.527 27.758 15.754 64.925-7.097 88.395l4.304 36.958c1.685 14.469 13.938 25.374 28.504 25.374h80.453c14.565 0 26.818-10.904 28.504-25.374l25.005-214.593a102.124 102.124 0 0 0-21.698-75.595z"/><path d="M283.804 300.081c5.267 0 10.613 1.125 15.978 3.622a5.324 5.324 0 0 0 6.824-2.105l10.262-17.174a5.351 5.351 0 0 0 .417-4.609 5.31 5.31 0 0 0-3.323-3.204c-8.046-2.673-15.689-3.943-22.98-3.943-13.008 0-24.858 4.038-35.732 11.338-7.964-3.927-29.771-15.464-32.147-24.023 0 0 4.217 1.924 6.021 2.496 15.754 4.994 26.32-3.557 29.275-16.684.722-3.253.786-6.528-.033-9.458-2.986-12.943-17.36-20.404-29.355-16.372-9.105 2.802-16.348 12.614-18.241 23.124a122.27 122.27 0 0 1-10.68-11.081c-3.004-3.445-5.669-7.033-7.885-10.734 13.921 1.124 26.736-5.982 23.686-17.745-4.208-23.791-35.121-14.75-34.221 2.086.241 3.646.738 6.673 1.461 9.411-3.389-1.293-6.729-3.003-9.763-5.67-6.456-6.479-6.392-12.34-6.714-12.108-.16-.939-1.028-1.549-1.941-1.381a1.685 1.685 0 0 0-1.383 1.944c3.404 12.357 12.173 19.31 21.617 22.129 2.262 5.219 5.604 9.771 10.453 15.97 4.223 5.114 9.441 10.719 15.191 15.609.371 3.075 1.125 6.094 2.698 8.84 5.652 11.024 22.258 24 33.017 30.649-4.144 3.646-8.109 7.804-11.962 12.373-4.61-2.047-9.557-3.164-14.583-3.195 4.111-11.707 1.782-24.225-4.527-33.178-11.645-16.541-34.479-20.507-51.02-8.865-3.677 2.595-6.632 5.807-9.042 9.313-12.234-13.512-32.791-16.219-48.078-5.468-14.984 10.559-19.511 30.271-11.563 46.21-5.59.771-11.111 2.69-16.042 6.167-16.204 11.401-20.251 33.465-9.509 49.91a36.477 36.477 0 0 0-13.055 5.773c-16.556 11.626-20.522 34.471-8.865 51.012.322.449.724.786 1.044 1.211-3.195 1.101-6.327 2.49-9.233 4.538-16.524 11.642-20.491 34.47-8.865 51.001 11.659 16.541 34.479 20.507 51.021 8.865 6.038-4.248 10.356-10.004 12.894-16.38 12.414 11.065 31.172 12.631 45.352 2.649 5.796-4.078 9.955-9.563 12.525-15.632 12.35 9.185 29.58 10.044 42.844.706 1.204-.85 2.217-1.878 3.291-2.85 12.27 13.224 32.616 15.792 47.776 5.13 3.372-2.368 6.07-5.292 8.366-8.447a36.45 36.45 0 0 0 4.849-33.867c4.529-1.028 8.946-2.618 12.977-5.453 16.525-11.635 20.508-34.462 8.863-51.01-6.503-9.267-16.587-14.374-27.073-15.208 2.761-10.158 1.315-21.391-5.236-30.682-.582-.817 23.043-15.55 34.349-15.55zm-96.627-94.401c-.818-11.2 19.962-18.612 24.201-1.02 2.215 8.205-8.946 13.963-21.423 12.172-1.589-3.596-2.747-7.281-2.778-11.152zm32.053 44.299c-3.42-19.591 26.257-34.11 31.686-11.844 1.156 3.629.754 7.79-1.061 11.257-4.385 7.788-14.823 11.433-30.625.587z"/></g></svg>